M48
;Layer_Color=9474304
;FILE_FORMAT=2:5
INCH
;TYPE=PLATED
T1F00S00C0.01496
T2F00S00C0.03543
T3F00S00C0.04134
T4F00S00C0.04200
T5F00S00C0.06102
T6F00S00C0.12097
T7F00S00C0.12598
T8F00S00C0.13780
%
T01
X2318803Y1198248
X2313303Y1208248
X2303303Y1214748
X2289803Y1212248
X2289303Y1199248
X2281803Y1194248
X2271303Y1183248
X2293803
X2295303Y1227748
X2283803Y1227248
X2273803Y1226748
X2287803Y1239248
X2297803Y1251248
X2303303Y1261748
X2282803Y1274248
X2291803Y1310748
X2291303Y1319748
X2294803Y1332748
X2303303Y1329248
X2308803Y1324748
X2328303Y1330748
X2336303Y1331748
X2337303Y1359248
X2329303Y1358748
X2308303Y1360248
X2294803Y1358748
X2289803Y1359748
X2294803Y1382248
X2314303Y1291248
T02
X2330134Y1207157
X2320134
Y1217157
Y1227157
Y1237157
Y1247157
X2330134
Y1237157
Y1227157
Y1217157
Y1257157
X2320134
X2279520Y1288626
X2269520
Y1298626
Y1308626
Y1318626
Y1328626
Y1338626
Y1348626
Y1358626
Y1368626
X2279520
Y1358626
Y1348626
Y1338626
Y1328626
Y1318626
Y1308626
Y1298626
T03
X2246234Y1238457
X2223934Y1218757
X2190134
Y1258157
Y1297557
Y1308657
Y1327157
Y1336957
Y1346757
X2246234
Y1356657
Y1327157
Y1317257
Y1307415
X2233734Y1297557
X2212534
X2246234Y1277857
T04
X2245941Y1218749
X2237034Y1364957
X2218131
X2199234
T05
X2237280Y1340402
X2199386Y1340205
T06
X2274634Y1392657
T07
X2330303Y1392657
T08
X2330303Y1168248
X2274634Y1209941
M30
