G04 Layer_Color=32896*
%FSAX25Y25*%
%MOIN*%
G70*
G01*
G75*
%ADD33C,0.01000*%
D33*
X2288378Y1379748D02*
X2295376D01*
X2293043D01*
X2288378Y1375083D01*
X2291877Y1378582D01*
X2295376Y1375083D01*
Y1371584D02*
Y1369251D01*
X2294210Y1368085D01*
X2291877D01*
X2290711Y1369251D01*
Y1371584D01*
X2291877Y1372750D01*
X2294210D01*
X2295376Y1371584D01*
X2290711Y1365753D02*
X2295376D01*
X2293043D01*
X2291877Y1364586D01*
X2290711Y1363420D01*
Y1362254D01*
Y1358755D02*
X2294210D01*
X2295376Y1357588D01*
Y1354090D01*
X2290711D01*
Y1351757D02*
Y1347092D01*
X2295376Y1351757D01*
Y1347092D01*
X2290711Y1343593D02*
Y1341260D01*
X2291877Y1340094D01*
X2295376D01*
Y1343593D01*
X2294210Y1344759D01*
X2293043Y1343593D01*
Y1340094D01*
X2289544Y1326099D02*
X2288378Y1327265D01*
Y1329598D01*
X2289544Y1330764D01*
X2290711D01*
X2291877Y1329598D01*
Y1327265D01*
X2293043Y1326099D01*
X2294210D01*
X2295376Y1327265D01*
Y1329598D01*
X2294210Y1330764D01*
X2288378Y1319101D02*
Y1323766D01*
X2291877D01*
Y1321434D01*
Y1323766D01*
X2295376D01*
Y1316768D02*
X2288378D01*
Y1313270D01*
X2289544Y1312103D01*
X2291877D01*
X2293043Y1313270D01*
Y1316768D01*
X2306173Y1379748D02*
X2299175D01*
X2303841D02*
X2301508Y1376249D01*
X2303841Y1379748D02*
X2306173Y1376249D01*
Y1371584D02*
Y1369251D01*
X2305007Y1368085D01*
X2302674D01*
X2301508Y1369251D01*
Y1371584D01*
X2302674Y1372750D01*
X2305007D01*
X2306173Y1371584D01*
X2301508Y1365753D02*
X2306173D01*
X2303841D01*
X2302674Y1364586D01*
X2301508Y1363420D01*
Y1362254D01*
Y1358755D02*
X2305007D01*
X2306173Y1357588D01*
Y1354090D01*
X2301508D01*
Y1351757D02*
Y1347092D01*
X2306173Y1351757D01*
Y1347092D01*
X2301508Y1343593D02*
Y1341260D01*
X2302674Y1340094D01*
X2306173D01*
Y1343593D01*
X2305007Y1344759D01*
X2303841Y1343593D01*
Y1340094D01*
X2302674Y1337762D02*
Y1333096D01*
X2299175Y1330764D02*
X2306173D01*
X2302674D01*
X2301508Y1329598D01*
Y1327265D01*
X2302674Y1326099D01*
X2306173D01*
Y1323766D02*
Y1320267D01*
X2305007Y1319101D01*
X2303841Y1320267D01*
Y1322600D01*
X2302674Y1323766D01*
X2301508Y1322600D01*
Y1319101D01*
X2302674Y1316768D02*
Y1312103D01*
X2301508Y1309771D02*
X2306173D01*
X2303841D01*
X2302674Y1308604D01*
X2301508Y1307438D01*
Y1306272D01*
X2306173Y1302773D02*
Y1300440D01*
Y1301607D01*
X2301508D01*
Y1302773D01*
X2308506Y1294609D02*
Y1293443D01*
X2307339Y1292276D01*
X2301508D01*
Y1295775D01*
X2302674Y1296941D01*
X2305007D01*
X2306173Y1295775D01*
Y1292276D01*
Y1289944D02*
Y1287611D01*
Y1288777D01*
X2301508D01*
Y1289944D01*
X2299175Y1279447D02*
X2306173D01*
Y1282946D01*
X2305007Y1284112D01*
X2302674D01*
X2301508Y1282946D01*
Y1279447D01*
X2314638Y1379748D02*
X2318137D01*
X2319303Y1378582D01*
X2318137Y1377415D01*
X2319303Y1376249D01*
X2318137Y1375083D01*
X2314638D01*
Y1372750D02*
X2318137D01*
X2319303Y1371584D01*
X2318137Y1370418D01*
X2319303Y1369251D01*
X2318137Y1368085D01*
X2314638D01*
Y1365753D02*
X2318137D01*
X2319303Y1364586D01*
X2318137Y1363420D01*
X2319303Y1362254D01*
X2318137Y1361087D01*
X2314638D01*
X2319303Y1358755D02*
X2318137D01*
Y1357588D01*
X2319303D01*
Y1358755D01*
Y1352923D02*
X2312305D01*
X2316970D02*
X2314638Y1349424D01*
X2316970Y1352923D02*
X2319303Y1349424D01*
Y1344759D02*
Y1342427D01*
X2318137Y1341260D01*
X2315804D01*
X2314638Y1342427D01*
Y1344759D01*
X2315804Y1345926D01*
X2318137D01*
X2319303Y1344759D01*
X2314638Y1338928D02*
X2319303D01*
X2316970D01*
X2315804Y1337762D01*
X2314638Y1336595D01*
Y1335429D01*
Y1331930D02*
X2318137D01*
X2319303Y1330764D01*
Y1327265D01*
X2314638D01*
Y1324932D02*
Y1320267D01*
X2319303Y1324932D01*
Y1320267D01*
X2314638Y1316768D02*
Y1314436D01*
X2315804Y1313270D01*
X2319303D01*
Y1316768D01*
X2318137Y1317935D01*
X2316970Y1316768D01*
Y1313270D01*
X2319303Y1310937D02*
X2318137D01*
Y1309771D01*
X2319303D01*
Y1310937D01*
Y1305105D02*
X2314638D01*
Y1301607D01*
X2315804Y1300440D01*
X2319303D01*
Y1294609D02*
Y1296941D01*
X2318137Y1298108D01*
X2315804D01*
X2314638Y1296941D01*
Y1294609D01*
X2315804Y1293443D01*
X2316970D01*
Y1298108D01*
X2313472Y1289944D02*
X2314638D01*
Y1291110D01*
Y1288777D01*
Y1289944D01*
X2318137D01*
X2319303Y1288777D01*
M02*
