G04 Layer_Color=8388736*
%FSAX25Y25*%
%MOIN*%
G70*
G01*
G75*
%ADD36R,0.04737X0.08083*%
%ADD37R,0.13398X0.08083*%
%ADD38R,0.02769X0.08674*%
%ADD39R,0.05721X0.06312*%
%ADD40R,0.04343X0.03359*%
%ADD41R,0.06312X0.05721*%
%ADD42R,0.05524X0.06312*%
%ADD43R,0.04147X0.03162*%
%ADD44R,0.03162X0.04147*%
%ADD45C,0.06312*%
%ADD46R,0.08674X0.08674*%
%ADD47C,0.06902*%
%ADD48R,0.06706X0.06706*%
%ADD49C,0.06706*%
%ADD50C,0.12897*%
%ADD51C,0.14579*%
%ADD52C,0.13398*%
D36*
X2311748Y1283748D02*
D03*
X2320803D02*
D03*
X2329858D02*
D03*
D37*
X2320803Y1308748D02*
D03*
D38*
X2231669Y1356347D02*
D03*
X2228520Y1356347D02*
D03*
X2225370D02*
D03*
X2222220Y1356347D02*
D03*
X2219071D02*
D03*
X2215921D02*
D03*
X2212772D02*
D03*
X2209622D02*
D03*
X2206473D02*
D03*
X2203323D02*
D03*
X2204898Y1324064D02*
D03*
X2208047D02*
D03*
X2211197D02*
D03*
X2214347D02*
D03*
X2217496D02*
D03*
X2220646D02*
D03*
X2223795D02*
D03*
X2226945Y1324064D02*
D03*
X2230095D02*
D03*
X2233244Y1324064D02*
D03*
D39*
X2323055Y1272248D02*
D03*
X2329551D02*
D03*
X2309055Y1319248D02*
D03*
X2315551D02*
D03*
D40*
X2294803Y1353602D02*
D03*
Y1347894D02*
D03*
Y1379102D02*
D03*
Y1373394D02*
D03*
Y1336748D02*
D03*
Y1342457D02*
D03*
X2336303Y1336894D02*
D03*
Y1342602D02*
D03*
X2294803Y1362539D02*
D03*
Y1368248D02*
D03*
X2337303Y1363394D02*
D03*
Y1369102D02*
D03*
X2270303Y1165957D02*
D03*
Y1160248D02*
D03*
X2293803Y1165957D02*
D03*
Y1160248D02*
D03*
D41*
X2302803Y1335000D02*
D03*
Y1341496D02*
D03*
X2328303Y1336500D02*
D03*
Y1342996D02*
D03*
X2302803Y1360500D02*
D03*
Y1366996D02*
D03*
X2329303Y1364000D02*
D03*
Y1370496D02*
D03*
D42*
X2309846Y1350748D02*
D03*
X2302760D02*
D03*
X2309846Y1376248D02*
D03*
X2302760D02*
D03*
X2318846Y1340748D02*
D03*
X2311760D02*
D03*
X2318846Y1366748D02*
D03*
X2311760D02*
D03*
D43*
X2270303Y1177102D02*
D03*
Y1171394D02*
D03*
X2293803Y1177102D02*
D03*
Y1171394D02*
D03*
X2277803Y1167394D02*
D03*
Y1173102D02*
D03*
X2300803Y1167394D02*
D03*
Y1173102D02*
D03*
D44*
X2260949Y1251748D02*
D03*
X2266657D02*
D03*
X2294949Y1277748D02*
D03*
X2300657D02*
D03*
X2282657Y1161248D02*
D03*
X2276949D02*
D03*
X2266657Y1246248D02*
D03*
X2260949D02*
D03*
X2305803Y1161248D02*
D03*
X2300094D02*
D03*
X2300657Y1271748D02*
D03*
X2294949D02*
D03*
X2295449Y1324248D02*
D03*
X2301157D02*
D03*
X2294949Y1297748D02*
D03*
X2300657D02*
D03*
X2294949Y1303748D02*
D03*
X2300657D02*
D03*
X2294949Y1290248D02*
D03*
X2300657D02*
D03*
X2294949Y1316748D02*
D03*
X2300657D02*
D03*
X2294949Y1310748D02*
D03*
X2300657D02*
D03*
X2286949Y1257748D02*
D03*
X2292657D02*
D03*
X2286949Y1251248D02*
D03*
X2292657D02*
D03*
D45*
X2218131Y1364957D02*
D03*
X2237034D02*
D03*
X2245941Y1218749D02*
D03*
X2199234Y1364957D02*
D03*
D46*
X2190134Y1346757D02*
D03*
X2246234Y1356657D02*
D03*
Y1346757D02*
D03*
Y1327157D02*
D03*
Y1317257D02*
D03*
X2223934Y1218757D02*
D03*
X2246234Y1238457D02*
D03*
Y1277857D02*
D03*
X2233734Y1297557D02*
D03*
X2212534D02*
D03*
X2190134Y1218757D02*
D03*
Y1308657D02*
D03*
Y1327157D02*
D03*
Y1258157D02*
D03*
Y1297557D02*
D03*
Y1336957D02*
D03*
X2246234Y1307415D02*
D03*
D47*
X2237280Y1340402D02*
D03*
X2199386Y1340205D02*
D03*
D48*
X2269520Y1368626D02*
D03*
X2330134Y1207157D02*
D03*
D49*
X2269520Y1358626D02*
D03*
Y1348626D02*
D03*
Y1338626D02*
D03*
Y1328626D02*
D03*
Y1318626D02*
D03*
Y1308626D02*
D03*
Y1298626D02*
D03*
Y1288626D02*
D03*
X2279520Y1368626D02*
D03*
Y1358626D02*
D03*
Y1348626D02*
D03*
Y1338626D02*
D03*
Y1328626D02*
D03*
Y1318626D02*
D03*
Y1308626D02*
D03*
Y1298626D02*
D03*
Y1288626D02*
D03*
X2320134Y1257157D02*
D03*
Y1247157D02*
D03*
Y1237157D02*
D03*
Y1227157D02*
D03*
Y1217157D02*
D03*
Y1207157D02*
D03*
X2330134Y1257157D02*
D03*
Y1247157D02*
D03*
Y1237157D02*
D03*
Y1227157D02*
D03*
Y1217157D02*
D03*
D50*
X2274634Y1392657D02*
D03*
D51*
Y1209941D02*
D03*
X2330303Y1168248D02*
D03*
D52*
Y1392657D02*
D03*
M02*
