G04 Layer_Physical_Order=1*
G04 Layer_Color=255*
%FSAX25Y25*%
%MOIN*%
G70*
G01*
G75*
%ADD10R,0.03937X0.07284*%
%ADD11R,0.12598X0.07284*%
%ADD12R,0.01969X0.07874*%
%ADD13R,0.04921X0.05512*%
%ADD14R,0.03543X0.02559*%
%ADD15R,0.05512X0.04921*%
%ADD16R,0.04724X0.05512*%
%ADD17R,0.03347X0.02362*%
%ADD18R,0.02362X0.03347*%
%ADD19C,0.01500*%
%ADD20C,0.02756*%
%ADD21C,0.03937*%
%ADD22C,0.05512*%
%ADD23R,0.07874X0.07874*%
%ADD24C,0.06102*%
%ADD25R,0.05906X0.05906*%
%ADD26C,0.05906*%
%ADD27C,0.12097*%
%ADD28C,0.13780*%
%ADD29C,0.12598*%
%ADD30C,0.02500*%
D10*
X2311748Y1283748D02*
D03*
X2320803D02*
D03*
X2329858D02*
D03*
D11*
X2320803Y1308748D02*
D03*
D12*
X2231669Y1356347D02*
D03*
X2228520Y1356347D02*
D03*
X2225370D02*
D03*
X2222220Y1356347D02*
D03*
X2219071D02*
D03*
X2215921D02*
D03*
X2212772D02*
D03*
X2209622D02*
D03*
X2206473D02*
D03*
X2203323D02*
D03*
X2204898Y1324064D02*
D03*
X2208047D02*
D03*
X2211197D02*
D03*
X2214347D02*
D03*
X2217496D02*
D03*
X2220646D02*
D03*
X2223795D02*
D03*
X2226945Y1324064D02*
D03*
X2230095D02*
D03*
X2233244Y1324064D02*
D03*
D13*
X2323055Y1272248D02*
D03*
X2329551D02*
D03*
X2309055Y1319248D02*
D03*
X2315551D02*
D03*
D14*
X2294803Y1353602D02*
D03*
Y1347894D02*
D03*
Y1379102D02*
D03*
Y1373394D02*
D03*
Y1336748D02*
D03*
Y1342457D02*
D03*
X2336303Y1336894D02*
D03*
Y1342602D02*
D03*
X2294803Y1362539D02*
D03*
Y1368248D02*
D03*
X2337303Y1363394D02*
D03*
Y1369102D02*
D03*
X2270303Y1165957D02*
D03*
Y1160248D02*
D03*
X2293803Y1165957D02*
D03*
Y1160248D02*
D03*
D15*
X2302803Y1335000D02*
D03*
Y1341496D02*
D03*
X2328303Y1336500D02*
D03*
Y1342996D02*
D03*
X2302803Y1360500D02*
D03*
Y1366996D02*
D03*
X2329303Y1364000D02*
D03*
Y1370496D02*
D03*
D16*
X2309846Y1350748D02*
D03*
X2302760D02*
D03*
X2309846Y1376248D02*
D03*
X2302760D02*
D03*
X2318846Y1340748D02*
D03*
X2311760D02*
D03*
X2318846Y1366748D02*
D03*
X2311760D02*
D03*
D17*
X2270303Y1177102D02*
D03*
Y1171394D02*
D03*
X2293803Y1177102D02*
D03*
Y1171394D02*
D03*
X2277803Y1167394D02*
D03*
Y1173102D02*
D03*
X2300803Y1167394D02*
D03*
Y1173102D02*
D03*
D18*
X2260949Y1251748D02*
D03*
X2266657D02*
D03*
X2294949Y1277748D02*
D03*
X2300657D02*
D03*
X2282657Y1161248D02*
D03*
X2276949D02*
D03*
X2266657Y1246248D02*
D03*
X2260949D02*
D03*
X2305803Y1161248D02*
D03*
X2300094D02*
D03*
X2300657Y1271748D02*
D03*
X2294949D02*
D03*
X2295449Y1324248D02*
D03*
X2301157D02*
D03*
X2294949Y1297748D02*
D03*
X2300657D02*
D03*
X2294949Y1303748D02*
D03*
X2300657D02*
D03*
X2294949Y1290248D02*
D03*
X2300657D02*
D03*
X2294949Y1316748D02*
D03*
X2300657D02*
D03*
X2294949Y1310748D02*
D03*
X2300657D02*
D03*
X2286949Y1257748D02*
D03*
X2292657D02*
D03*
X2286949Y1251248D02*
D03*
X2292657D02*
D03*
D19*
X2286949Y1240102D02*
X2287803Y1239248D01*
X2286949Y1240102D02*
Y1251248D01*
Y1257748D01*
X2259303Y1206248D02*
X2271303Y1194248D01*
X2281803D01*
X2285303Y1201748D02*
X2305803Y1222248D01*
X2285303Y1163894D02*
Y1201748D01*
X2282657Y1161248D02*
X2285303Y1163894D01*
X2293303Y1283248D02*
X2300657D01*
X2291803Y1310748D02*
Y1312248D01*
X2285425Y1318626D02*
X2291803Y1312248D01*
X2279520Y1318626D02*
X2285425D01*
X2291095Y1342457D02*
X2294803D01*
X2286803Y1346748D02*
X2291095Y1342457D01*
X2286803Y1346748D02*
Y1351248D01*
X2327555Y1342248D02*
X2328303Y1342996D01*
X2320346Y1342248D02*
X2327555D01*
X2318846Y1340748D02*
X2320346Y1342248D01*
X2301842Y1342457D02*
X2302803Y1341496D01*
X2294803Y1342457D02*
X2301842D01*
X2290303Y1349248D02*
Y1352748D01*
X2284425Y1358626D02*
X2290303Y1352748D01*
X2279520Y1358626D02*
X2284425D01*
X2301260Y1349248D02*
X2302760Y1350748D01*
X2296157Y1349248D02*
X2301260D01*
X2294803Y1347894D02*
X2296157Y1349248D01*
X2302803Y1360500D02*
X2308051D01*
X2308303Y1360248D01*
X2289803Y1358602D02*
X2294803Y1353602D01*
X2289803Y1358602D02*
Y1359748D01*
X2292303Y1368248D02*
X2294803D01*
X2287803Y1363748D02*
X2292303Y1368248D01*
X2275303Y1363748D02*
X2287803D01*
X2301551Y1368248D02*
X2302803Y1366996D01*
X2294803Y1368248D02*
X2301551D01*
X2299906Y1373394D02*
X2302760Y1376248D01*
X2294803Y1373394D02*
X2299906D01*
X2296803Y1177102D02*
X2300803Y1173102D01*
X2293803Y1177102D02*
X2296803D01*
X2273803D02*
X2277803Y1173102D01*
X2270303Y1177102D02*
X2273803D01*
X2293803D02*
Y1183248D01*
X2270303Y1177102D02*
X2271303Y1178102D01*
Y1183248D01*
X2273803Y1226748D02*
X2274303Y1227248D01*
Y1244102D01*
X2266657Y1251748D02*
X2274303Y1244102D01*
X2300657Y1283248D02*
Y1290248D01*
Y1277748D02*
Y1283248D01*
X2266657Y1251748D02*
Y1257102D01*
X2274803Y1265248D01*
Y1292248D01*
X2276303Y1293748D01*
X2282803D01*
X2293303Y1283248D01*
X2266657Y1246248D02*
X2270303Y1242602D01*
Y1229248D02*
Y1242602D01*
X2311748Y1281303D02*
Y1283748D01*
X2314303Y1286303D02*
Y1291248D01*
X2311748Y1283748D02*
X2314303Y1286303D01*
X2308803Y1324748D02*
X2309055Y1324496D01*
Y1319248D02*
Y1324496D01*
X2336303Y1331748D02*
Y1336894D01*
X2328303Y1330748D02*
Y1336500D01*
X2302803Y1329748D02*
X2303303Y1329248D01*
X2302803Y1329748D02*
Y1335000D01*
X2294803Y1332748D02*
Y1336748D01*
Y1379102D02*
Y1382248D01*
X2337303Y1359248D02*
Y1363394D01*
X2329303Y1358748D02*
Y1364000D01*
X2294803Y1358748D02*
Y1362539D01*
X2300657Y1271748D02*
X2305657Y1266748D01*
X2329303D01*
X2335803Y1260248D01*
Y1250748D02*
Y1260248D01*
X2332212Y1247157D02*
X2335803Y1250748D01*
X2330134Y1247157D02*
X2332212D01*
X2294949Y1271748D02*
Y1277748D01*
X2290803D02*
X2294949D01*
X2287303Y1274248D02*
X2290803Y1277748D01*
X2282803Y1274248D02*
X2287303D01*
X2279520Y1226031D02*
Y1288626D01*
Y1226031D02*
X2289803Y1215748D01*
X2293712Y1237157D02*
X2320134D01*
X2283803Y1227248D02*
X2293712Y1237157D01*
X2295303Y1227157D02*
X2320134D01*
X2259303Y1218248D02*
X2270303Y1229248D01*
X2259303Y1206248D02*
Y1218248D01*
X2260303Y1166248D02*
Y1200748D01*
X2253803Y1207248D02*
X2260303Y1200748D01*
X2253803Y1207248D02*
Y1336748D01*
X2260949Y1245748D02*
Y1251748D01*
X2259803Y1252894D02*
Y1321748D01*
Y1252894D02*
X2260949Y1251748D01*
X2291803Y1310748D02*
X2294949D01*
X2303303Y1214748D02*
X2305713Y1217157D01*
X2320134D01*
X2313303Y1168748D02*
Y1208248D01*
X2282925Y1328626D02*
X2294876Y1316675D01*
X2318803Y1198248D02*
X2320134Y1199579D01*
Y1207157D01*
X2299803Y1257748D02*
X2305803Y1263748D01*
X2297803Y1251248D02*
X2300303D01*
X2292657D02*
X2297803D01*
X2292657Y1257748D02*
X2299803D01*
X2305803Y1263748D02*
X2323543D01*
X2330134Y1257157D01*
X2300303Y1251248D02*
X2306212Y1257157D01*
X2320134D01*
X2305803Y1161248D02*
X2313303Y1168748D01*
X2293803Y1165957D02*
Y1171394D01*
X2300094Y1166685D02*
X2300803Y1167394D01*
X2300094Y1161248D02*
Y1166685D01*
X2299095Y1160248D02*
X2300094Y1161248D01*
X2293803Y1160248D02*
X2299095D01*
X2290803D02*
X2293803D01*
X2289303Y1161748D02*
X2290803Y1160248D01*
X2289303Y1161748D02*
Y1199248D01*
X2289803Y1212248D02*
Y1215748D01*
X2325224Y1222248D02*
X2330134Y1227157D01*
X2305803Y1222248D02*
X2325224D01*
X2270303Y1165957D02*
Y1171394D01*
X2276949Y1166539D02*
X2277803Y1167394D01*
X2276949Y1161248D02*
Y1166539D01*
X2275949Y1160248D02*
X2276949Y1161248D01*
X2270303Y1160248D02*
X2275949D01*
X2266303D02*
X2270303D01*
X2260303Y1166248D02*
X2266303Y1160248D01*
X2315551Y1314000D02*
X2318803Y1310748D01*
X2320803Y1308748D01*
X2300657Y1310748D02*
X2318803D01*
X2300657Y1290248D02*
Y1297748D01*
Y1303748D01*
Y1310748D01*
Y1316748D01*
X2301157Y1317248D01*
Y1324248D01*
X2293303Y1290248D02*
X2294949D01*
X2284925Y1298626D02*
X2293303Y1290248D01*
X2279520Y1298626D02*
X2284925D01*
X2291803Y1297748D02*
X2294949D01*
X2285803Y1303748D02*
X2291803Y1297748D01*
X2274398Y1303748D02*
X2285803D01*
X2269520Y1308626D02*
X2274398Y1303748D01*
X2292803D02*
X2294949D01*
X2282803Y1313748D02*
X2292803Y1303748D01*
X2275303Y1313748D02*
X2282803D01*
X2270425Y1318626D02*
X2275303Y1313748D01*
X2269520Y1318626D02*
X2270425D01*
X2293803Y1324248D02*
X2295449D01*
X2289803Y1328248D02*
X2293803Y1324248D01*
X2289803Y1328248D02*
Y1337248D01*
X2279520Y1328626D02*
X2282925D01*
X2283303Y1343748D02*
X2289803Y1337248D01*
X2273803Y1343748D02*
X2283303D01*
X2269520Y1339465D02*
X2273803Y1343748D01*
X2269520Y1338626D02*
Y1339465D01*
X2259803Y1321748D02*
X2266681Y1328626D01*
X2253803Y1336748D02*
X2265681Y1348626D01*
X2266681Y1328626D02*
X2269520D01*
X2265681Y1348626D02*
X2269520D01*
X2340949Y1369102D02*
X2341803Y1368248D01*
Y1325248D02*
Y1368248D01*
X2335803Y1319248D02*
X2341803Y1325248D01*
X2340949Y1342602D02*
X2341303Y1342248D01*
X2336303Y1342602D02*
X2340949D01*
X2270425Y1368626D02*
X2275303Y1363748D01*
X2269520Y1368626D02*
X2270425D01*
X2279520D02*
X2284287Y1373394D01*
X2294803D01*
X2302803Y1366996D02*
X2303051Y1366748D01*
X2311760D01*
X2323551Y1376248D02*
X2329303Y1370496D01*
X2309846Y1376248D02*
X2323551D01*
X2318846Y1366748D02*
X2322594Y1370496D01*
X2329303D01*
X2330697Y1369102D01*
X2337303D01*
X2340949D01*
X2284303Y1353748D02*
X2286803Y1351248D01*
X2273803Y1353748D02*
X2284303D01*
X2269520Y1358031D02*
X2273803Y1353748D01*
X2269520Y1358031D02*
Y1358626D01*
X2291657Y1347894D02*
X2294803D01*
X2290303Y1349248D02*
X2291657Y1347894D01*
X2302803Y1341496D02*
X2303551Y1340748D01*
X2311760D01*
X2328697Y1342602D02*
Y1346854D01*
X2324803Y1350748D02*
X2328697Y1346854D01*
X2309846Y1350748D02*
X2324803D01*
X2328303Y1342996D02*
X2328697Y1342602D01*
X2336303D01*
X2315551Y1319248D02*
X2335803D01*
X2315551Y1314000D02*
Y1319248D01*
D20*
X2320803Y1272248D02*
X2323055D01*
X2311748Y1281303D02*
X2320803Y1272248D01*
Y1283748D02*
Y1308748D01*
D21*
X2329551Y1283441D02*
X2329858Y1283748D01*
X2329551Y1272248D02*
Y1283441D01*
Y1272248D02*
X2335303D01*
X2340303Y1267248D01*
Y1212248D02*
Y1267248D01*
X2335213Y1207157D02*
X2340303Y1212248D01*
X2330134Y1207157D02*
X2335213D01*
D22*
X2218131Y1364957D02*
D03*
X2237034D02*
D03*
X2245941Y1218749D02*
D03*
X2199234Y1364957D02*
D03*
D23*
X2190134Y1346757D02*
D03*
X2246234Y1356657D02*
D03*
Y1346757D02*
D03*
Y1327157D02*
D03*
Y1317257D02*
D03*
X2223934Y1218757D02*
D03*
X2246234Y1238457D02*
D03*
Y1277857D02*
D03*
X2233734Y1297557D02*
D03*
X2212534D02*
D03*
X2190134Y1218757D02*
D03*
Y1308657D02*
D03*
Y1327157D02*
D03*
Y1258157D02*
D03*
Y1297557D02*
D03*
Y1336957D02*
D03*
X2246234Y1307415D02*
D03*
D24*
X2237280Y1340402D02*
D03*
X2199386Y1340205D02*
D03*
D25*
X2269520Y1368626D02*
D03*
X2330134Y1207157D02*
D03*
D26*
X2269520Y1358626D02*
D03*
Y1348626D02*
D03*
Y1338626D02*
D03*
Y1328626D02*
D03*
Y1318626D02*
D03*
Y1308626D02*
D03*
Y1298626D02*
D03*
Y1288626D02*
D03*
X2279520Y1368626D02*
D03*
Y1358626D02*
D03*
Y1348626D02*
D03*
Y1338626D02*
D03*
Y1328626D02*
D03*
Y1318626D02*
D03*
Y1308626D02*
D03*
Y1298626D02*
D03*
Y1288626D02*
D03*
X2320134Y1257157D02*
D03*
Y1247157D02*
D03*
Y1237157D02*
D03*
Y1227157D02*
D03*
Y1217157D02*
D03*
Y1207157D02*
D03*
X2330134Y1257157D02*
D03*
Y1247157D02*
D03*
Y1237157D02*
D03*
Y1227157D02*
D03*
Y1217157D02*
D03*
D27*
X2274634Y1392657D02*
D03*
D28*
Y1209941D02*
D03*
X2330303Y1168248D02*
D03*
D29*
Y1392657D02*
D03*
D30*
X2287803Y1239248D02*
D03*
X2281803Y1194248D02*
D03*
X2308303Y1360248D02*
D03*
X2293803Y1183248D02*
D03*
X2271303D02*
D03*
X2273803Y1226748D02*
D03*
X2314303Y1291248D02*
D03*
X2308803Y1324748D02*
D03*
X2336303Y1331748D02*
D03*
X2328303Y1330748D02*
D03*
X2303303Y1329248D02*
D03*
X2294803Y1332748D02*
D03*
X2289803Y1359748D02*
D03*
X2294803Y1382248D02*
D03*
X2337303Y1359248D02*
D03*
X2329303Y1358748D02*
D03*
X2294803D02*
D03*
X2282803Y1274248D02*
D03*
X2283803Y1227248D02*
D03*
X2295303Y1227748D02*
D03*
X2291803Y1310748D02*
D03*
X2303303Y1214748D02*
D03*
X2313303Y1208248D02*
D03*
X2291303Y1319748D02*
D03*
X2318803Y1198248D02*
D03*
X2303303Y1261748D02*
D03*
X2297803Y1251248D02*
D03*
X2289303Y1199248D02*
D03*
X2289803Y1212248D02*
D03*
M02*
