G04 Layer_Color=8421504*
%FSAX25Y25*%
%MOIN*%
G70*
G01*
G75*
%ADD10R,0.03937X0.07284*%
%ADD11R,0.12598X0.07284*%
%ADD12R,0.01969X0.07874*%
%ADD13R,0.04921X0.05512*%
%ADD14R,0.03543X0.02559*%
%ADD15R,0.05512X0.04921*%
%ADD16R,0.04724X0.05512*%
%ADD17R,0.03347X0.02362*%
%ADD18R,0.02362X0.03347*%
D10*
X2311748Y1283748D02*
D03*
X2320803D02*
D03*
X2329858D02*
D03*
D11*
X2320803Y1308748D02*
D03*
D12*
X2231669Y1356347D02*
D03*
X2228520Y1356347D02*
D03*
X2225370D02*
D03*
X2222220Y1356347D02*
D03*
X2219071D02*
D03*
X2215921D02*
D03*
X2212772D02*
D03*
X2209622D02*
D03*
X2206473D02*
D03*
X2203323D02*
D03*
X2204898Y1324064D02*
D03*
X2208047D02*
D03*
X2211197D02*
D03*
X2214347D02*
D03*
X2217496D02*
D03*
X2220646D02*
D03*
X2223795D02*
D03*
X2226945Y1324064D02*
D03*
X2230095D02*
D03*
X2233244Y1324064D02*
D03*
D13*
X2323055Y1272248D02*
D03*
X2329551D02*
D03*
X2309055Y1319248D02*
D03*
X2315551D02*
D03*
D14*
X2294803Y1353602D02*
D03*
Y1347894D02*
D03*
Y1379102D02*
D03*
Y1373394D02*
D03*
Y1336748D02*
D03*
Y1342457D02*
D03*
X2336303Y1336894D02*
D03*
Y1342602D02*
D03*
X2294803Y1362539D02*
D03*
Y1368248D02*
D03*
X2337303Y1363394D02*
D03*
Y1369102D02*
D03*
X2270303Y1165957D02*
D03*
Y1160248D02*
D03*
X2293803Y1165957D02*
D03*
Y1160248D02*
D03*
D15*
X2302803Y1335000D02*
D03*
Y1341496D02*
D03*
X2328303Y1336500D02*
D03*
Y1342996D02*
D03*
X2302803Y1360500D02*
D03*
Y1366996D02*
D03*
X2329303Y1364000D02*
D03*
Y1370496D02*
D03*
D16*
X2309846Y1350748D02*
D03*
X2302760D02*
D03*
X2309846Y1376248D02*
D03*
X2302760D02*
D03*
X2318846Y1340748D02*
D03*
X2311760D02*
D03*
X2318846Y1366748D02*
D03*
X2311760D02*
D03*
D17*
X2270303Y1177102D02*
D03*
Y1171394D02*
D03*
X2293803Y1177102D02*
D03*
Y1171394D02*
D03*
X2277803Y1167394D02*
D03*
Y1173102D02*
D03*
X2300803Y1167394D02*
D03*
Y1173102D02*
D03*
D18*
X2260949Y1251748D02*
D03*
X2266657D02*
D03*
X2294949Y1277748D02*
D03*
X2300657D02*
D03*
X2282657Y1161248D02*
D03*
X2276949D02*
D03*
X2266657Y1246248D02*
D03*
X2260949D02*
D03*
X2305803Y1161248D02*
D03*
X2300094D02*
D03*
X2300657Y1271748D02*
D03*
X2294949D02*
D03*
X2295449Y1324248D02*
D03*
X2301157D02*
D03*
X2294949Y1297748D02*
D03*
X2300657D02*
D03*
X2294949Y1303748D02*
D03*
X2300657D02*
D03*
X2294949Y1290248D02*
D03*
X2300657D02*
D03*
X2294949Y1316748D02*
D03*
X2300657D02*
D03*
X2294949Y1310748D02*
D03*
X2300657D02*
D03*
X2286949Y1257748D02*
D03*
X2292657D02*
D03*
X2286949Y1251248D02*
D03*
X2292657D02*
D03*
M02*
